<?xml version="1.0" standalone="no"?>
<!DOCTYPE svg PUBLIC "-//W3C//DTD SVG 20010904//EN"
 "http://www.w3.org/TR/2001/REC-SVG-20010904/DTD/svg10.dtd">
<svg version="1.0" xmlns="http://www.w3.org/2000/svg"
 width="1206.000000pt" height="396.000000pt" viewBox="0 0 1206.000000 396.000000"
 preserveAspectRatio="xMidYMid meet">
<metadata>
Created by potrace 1.10, written by Peter Selinger 2001-2011
</metadata>
<g transform="translate(0.000000,396.000000) scale(0.100000,-0.100000)"
fill="#2F7762" stroke="none">
<path d="M5885 3572 c-16 -10 -49 -30 -72 -45 -24 -15 -45 -27 -48 -27 -2 0
-50 -27 -106 -60 -55 -33 -102 -60 -104 -60 -4 0 -250 -143 -275 -160 -8 -6
-24 -14 -35 -19 -19 -8 -187 -106 -225 -131 -8 -6 -22 -13 -30 -17 -39 -16
-102 -79 -120 -118 -19 -42 -20 -66 -20 -620 l0 -576 25 -49 c24 -48 82 -96
165 -137 8 -4 59 -33 113 -65 54 -32 101 -58 103 -58 2 0 23 -12 47 -27 23
-15 51 -33 63 -39 128 -69 161 -88 175 -100 8 -8 18 -14 21 -14 5 0 168 -93
228 -130 8 -5 45 -25 82 -45 101 -53 172 -47 283 25 17 11 37 23 45 27 8 4 59
33 113 65 55 32 101 58 105 58 3 0 13 6 21 14 9 7 48 31 86 52 39 20 98 55
133 76 34 21 64 38 66 38 3 0 62 34 131 75 70 41 130 75 134 75 19 0 104 88
121 125 19 42 20 67 20 622 0 570 0 579 -21 618 -27 50 -64 84 -131 119 -29
15 -60 31 -68 37 -35 22 -216 126 -230 132 -8 4 -28 16 -45 27 -16 11 -37 23
-45 27 -8 4 -48 26 -88 50 -40 24 -74 43 -76 43 -2 0 -50 27 -105 60 -56 33
-104 60 -106 60 -3 0 -24 12 -48 27 -90 58 -104 63 -179 62 -50 0 -83 -6 -103
-17z m265 -869 c28 -16 30 -21 25 -53 -4 -19 -13 -47 -21 -62 -8 -15 -14 -34
-14 -43 0 -8 -4 -23 -10 -33 -11 -18 -36 -89 -50 -137 -9 -34 -29 -90 -41
-120 -5 -11 -27 -74 -48 -140 -51 -154 -68 -195 -84 -195 -30 1 -92 30 -95 45
-2 10 3 31 11 49 16 34 34 85 47 131 5 17 18 55 30 85 12 30 25 69 30 85 9 31
26 82 42 125 6 14 28 79 50 145 22 66 42 123 44 127 9 14 51 9 84 -9z m-461
-190 c17 -21 31 -42 31 -48 -1 -5 -37 -36 -80 -68 -44 -33 -80 -64 -80 -70 0
-7 36 -40 80 -75 44 -35 80 -69 80 -77 0 -15 -59 -85 -72 -85 -4 0 -21 11 -36
24 -33 30 -94 79 -184 148 -49 38 -68 59 -68 75 0 13 4 23 9 23 5 0 67 43 137
95 71 52 134 95 141 95 6 0 25 -17 42 -37z m726 -13 c39 -27 76 -55 84 -62 8
-6 40 -29 72 -51 33 -21 59 -42 59 -46 0 -14 -27 -40 -129 -122 -57 -46 -115
-94 -130 -106 -14 -12 -30 -22 -34 -23 -10 0 -77 72 -77 83 0 9 23 31 103 96
56 46 65 57 56 73 -5 10 -16 18 -24 18 -7 0 -15 4 -17 8 -1 5 -29 27 -61 50
l-57 43 17 27 c25 41 45 62 57 62 6 0 43 -22 81 -50z"/>
<path d="M2738 613 l-97 -4 -7 -36 c-5 -25 -2 -45 7 -62 14 -24 21 -26 105
-31 94 -5 124 -17 124 -50 0 -38 -32 -50 -133 -50 -58 0 -97 -4 -97 -10 0 -6
45 -10 114 -10 130 0 139 5 134 72 -4 55 -28 68 -129 68 -61 0 -79 4 -92 18
-46 51 -3 82 111 82 53 0 81 4 77 10 -3 6 -9 9 -13 8 -4 -1 -51 -4 -104 -5z"/>
<path d="M3443 612 l-113 -3 0 -124 c0 -103 3 -125 14 -125 12 0 15 19 13 104
-2 137 -2 138 120 135 51 -1 93 2 94 7 1 10 7 10 -128 6z"/>
<path d="M3750 611 l-105 -6 -3 -80 c-2 -44 2 -99 9 -122 l12 -43 108 0 c66 0
109 4 109 10 0 6 -40 10 -99 10 -81 0 -100 3 -105 16 -11 29 -7 179 6 192 8 8
46 12 106 12 59 0 91 4 87 10 -3 6 -9 9 -13 8 -4 -1 -54 -4 -112 -7z"/>
<path d="M4210 611 l-94 -6 -9 -31 c-7 -22 -5 -40 4 -60 14 -28 16 -29 112
-34 83 -4 101 -8 113 -24 19 -26 18 -40 -4 -59 -15 -14 -40 -17 -120 -17 -61
0 -102 -4 -102 -10 0 -6 45 -10 115 -10 112 0 115 1 131 26 14 20 15 33 8 62
-11 43 -27 50 -131 51 -59 1 -77 5 -93 21 -11 11 -20 25 -20 30 0 6 9 19 20
30 17 17 33 20 106 20 54 0 83 4 79 10 -3 6 -9 9 -13 8 -4 -1 -50 -4 -102 -7z"/>
<path d="M4553 612 l-113 -3 0 -108 c0 -141 0 -141 143 -141 65 0 107 4 107
10 0 6 -40 10 -99 10 -76 0 -101 3 -111 15 -17 21 -17 170 0 190 11 13 33 16
107 14 51 -1 93 2 94 7 1 10 7 10 -128 6z"/>
<path d="M4875 610 l-100 -5 0 -120 0 -120 113 -3 c76 -2 111 1 107 8 -3 6
-44 10 -94 10 -54 0 -91 4 -99 12 -17 17 -16 184 1 195 6 4 55 10 107 13 52 3
88 7 80 10 -8 3 -60 3 -115 0z"/>
<path d="M5913 608 c-2 -5 11 -8 29 -8 79 0 78 1 78 -126 0 -69 4 -114 10
-114 6 0 10 43 10 108 0 71 4 112 12 120 7 7 34 12 62 12 27 0 47 3 43 6 -9 9
-238 10 -244 2z"/>
<path d="M7113 608 c-2 -5 18 -8 44 -8 27 0 54 -5 61 -12 8 -8 12 -49 12 -120
0 -65 4 -108 10 -108 6 0 10 45 10 114 0 127 -1 126 79 126 19 0 32 3 28 6 -9
9 -238 10 -244 2z"/>
<path d="M7553 612 l-113 -3 0 -108 c0 -141 0 -141 143 -141 65 0 107 4 107
10 0 6 -41 10 -104 10 -68 0 -107 4 -112 11 -4 7 -7 49 -8 95 0 112 3 116 121
113 51 -1 93 2 94 7 1 10 7 10 -128 6z"/>
<path d="M7869 613 c-90 -3 -97 -5 -103 -26 -9 -35 -7 -173 4 -201 9 -26 11
-26 115 -26 63 0 105 4 105 10 0 6 -38 10 -95 10 -113 0 -115 2 -115 114 0
101 6 106 121 106 58 0 88 4 84 10 -3 6 -9 9 -13 8 -4 -1 -50 -4 -103 -5z"/>
<path d="M8464 609 c-13 -22 -18 -249 -5 -249 7 0 11 28 11 79 0 87 5 111 25
111 7 0 54 -43 104 -96 50 -53 96 -94 103 -92 16 6 25 248 9 248 -7 0 -11 -31
-11 -85 0 -121 -9 -121 -124 -7 -50 51 -94 94 -97 98 -4 3 -11 0 -15 -7z"/>
<path d="M8860 612 c-35 -11 -54 -56 -55 -129 0 -47 5 -68 21 -90 20 -27 24
-28 122 -31 l100 -3 26 34 c22 28 26 44 26 98 -1 52 -5 69 -25 93 -22 28 -28
30 -107 32 -46 2 -94 0 -108 -4z m185 -37 c21 -21 25 -33 25 -89 0 -60 -2 -66
-32 -91 -29 -24 -38 -27 -95 -23 -89 6 -113 30 -113 112 0 51 4 64 27 88 24
25 33 28 95 28 60 0 72 -3 93 -25z"/>
<path d="M9543 612 c-60 -18 -82 -142 -38 -213 l26 -40 101 3 102 3 23 34 c44
65 24 190 -33 211 -28 11 -146 12 -181 2z m184 -34 c20 -18 23 -31 23 -87 0
-36 -4 -71 -8 -77 -34 -49 -146 -61 -195 -21 -46 37 -49 145 -6 188 29 29 153
28 186 -3z"/>
<path d="M9984 613 l-112 -4 -6 -31 c-9 -47 -7 -164 4 -193 l10 -26 122 3 123
3 3 53 c2 31 -2 60 -9 68 -14 17 -159 20 -159 4 0 -6 28 -10 63 -10 67 0 87
-10 87 -46 0 -51 -6 -54 -105 -54 -120 0 -125 4 -125 110 0 107 4 110 136 110
68 0 103 4 99 10 -3 6 -9 9 -13 8 -4 -1 -57 -4 -118 -5z"/>
<path d="M1548 593 c-35 -40 -48 -82 -48 -158 0 -58 3 -75 14 -75 9 0 16 12
18 28 l3 27 105 0 105 0 3 -27 c2 -16 9 -28 18 -28 11 0 14 23 14 125 l0 125
-108 0 c-91 0 -111 -3 -124 -17z m191 -7 c7 -9 11 -38 9 -73 l-3 -58 -105 0
-105 0 2 44 c2 45 22 77 58 92 34 14 131 10 144 -5z"/>
<path d="M1872 488 l3 -123 118 -3 c73 -2 117 1 117 7 0 6 -43 11 -102 13
l-103 3 -3 113 c-2 92 -5 112 -18 112 -12 0 -14 -19 -12 -122z"/>
<path d="M2190 485 l0 -125 125 0 c158 0 168 18 13 22 l-113 3 -3 113 c-4 155
-22 145 -22 -13z"/>
<path d="M3002 578 c-31 -31 -32 -34 -32 -125 0 -51 4 -93 9 -93 5 0 11 12 13
28 l3 27 105 0 105 0 3 -27 c2 -16 9 -28 16 -28 9 0 12 31 12 123 l-1 122
-101 3 -101 3 -31 -33z m196 13 c9 -5 12 -27 10 -72 l-3 -64 -105 0 -105 0 -3
29 c-8 67 50 116 138 116 30 0 61 -4 68 -9z"/>
<path d="M5080 554 c0 -86 18 -141 55 -169 28 -22 42 -25 123 -25 l92 0 0 125
c0 158 -18 168 -22 13 l-3 -113 -73 -3 c-72 -3 -74 -2 -108 32 -33 33 -34 36
-34 115 0 65 -3 81 -15 81 -12 0 -15 -13 -15 -56z"/>
<path d="M5457 603 c-11 -11 -8 -243 3 -243 6 0 10 43 10 108 0 71 4 112 12
120 8 8 45 12 99 12 102 0 125 -13 115 -63 -10 -50 -61 -73 -137 -61 -32 5
-39 4 -39 -10 0 -9 8 -16 18 -16 9 0 40 -20 67 -45 30 -27 60 -45 74 -45 23 0
21 3 -17 31 -23 17 -40 35 -37 39 3 5 23 19 44 31 32 18 40 28 45 60 3 22 3
51 0 64 -6 25 -7 25 -128 25 -68 0 -126 -3 -129 -7z"/>
<path d="M5800 485 c0 -104 2 -125 15 -125 13 0 15 21 15 125 0 104 -2 125
-15 125 -13 0 -15 -21 -15 -125z"/>
<path d="M6220 561 c0 -62 34 -108 83 -113 30 -3 32 -6 35 -45 2 -29 8 -43 17
-43 9 0 15 14 17 43 3 39 5 42 33 45 17 2 42 15 58 30 23 22 27 34 27 79 0 40
-4 53 -15 53 -12 0 -15 -13 -15 -55 0 -66 -16 -79 -105 -79 -89 0 -105 13
-105 79 0 42 -3 55 -15 55 -11 0 -15 -12 -15 -49z"/>
<path d="M8082 485 c0 -101 2 -125 14 -125 10 0 14 13 14 48 0 26 5 53 12 60
13 13 163 17 192 6 12 -5 16 -20 16 -60 0 -30 5 -54 10 -54 6 0 10 48 10 125
0 72 -4 125 -9 125 -6 0 -11 -24 -13 -52 l-3 -53 -99 -3 c-112 -3 -116 -1
-116 66 0 29 -4 42 -14 42 -11 0 -14 -25 -14 -125z"/>
<path d="M9180 485 l0 -125 125 0 c155 0 169 18 18 22 l-108 3 -3 113 c-2 90
-5 112 -17 112 -12 0 -15 -22 -15 -125z"/>
<path d="M10200 561 c0 -42 5 -54 30 -80 17 -16 43 -31 58 -33 24 -3 27 -8 30
-45 3 -34 7 -43 22 -43 15 0 19 9 22 43 3 37 6 42 30 45 15 2 41 17 57 35 26
26 31 39 31 79 0 36 -4 48 -15 48 -11 0 -15 -11 -15 -41 0 -22 -5 -49 -10 -59
-24 -45 -166 -49 -195 -7 -8 12 -15 41 -15 64 0 32 -4 43 -15 43 -11 0 -15
-12 -15 -49z"/>
<path d="M6732 585 c-19 -14 -21 -24 -20 -80 2 -63 3 -64 21 -45 11 13 31 20
52 20 19 0 35 5 35 10 0 6 -18 10 -40 10 -33 0 -42 4 -49 23 -13 35 5 47 70
47 32 0 60 4 63 9 15 24 -98 29 -132 6z"/>
<path d="M3420 490 c0 -6 28 -10 65 -10 37 0 65 4 65 10 0 6 -28 10 -65 10
-37 0 -65 -4 -65 -10z"/>
<path d="M3720 490 c0 -6 30 -10 71 -10 44 0 68 4 64 10 -3 6 -35 10 -71 10
-36 0 -64 -4 -64 -10z"/>
<path d="M4530 490 c0 -6 28 -10 65 -10 37 0 65 4 65 10 0 6 -28 10 -65 10
-37 0 -65 -4 -65 -10z"/>
<path d="M7530 490 c0 -6 28 -10 65 -10 37 0 65 4 65 10 0 6 -28 10 -65 10
-37 0 -65 -4 -65 -10z"/>
<path d="M6869 411 c-16 -46 -96 -57 -136 -19 -23 21 -29 15 -17 -16 5 -13 22
-16 79 -16 l73 0 21 40 c17 34 18 40 5 40 -8 0 -20 -13 -25 -29z"/>
</g>
</svg>
